<svg xmlns="http://www.w3.org/2000/svg" xmlns:xlink="http://www.w3.org/1999/xlink" data-name="Layer 2" preserveAspectRatio="xMidYMid meet" version="1.0" viewBox="2.5 3.3 59.1 57.3" zoomAndPan="magnify" style="fill: rgb(239, 214, 172);" original_string_length="1515" width="22.56375585182752px" height="21.784280649673473px"><g id="__id36_s1iqvsdoqd"><path d="M42.81,38.31a3,3,0,1,0-3,3A3,3,0,0,0,42.81,38.31Z" style="fill: inherit;"/></g><g id="__id37_s1iqvsdoqd"><path d="M21.19,24.72a3,3,0,1,0,3-3A3,3,0,0,0,21.19,24.72Z" style="fill: inherit;"/></g><g id="__id38_s1iqvsdoqd"><path d="M57.8,25.57A5.1,5.1,0,0,1,56.65,22l.15-2.55a7.07,7.07,0,0,0-5.24-7.21l-2.47-.65a5.06,5.06,0,0,1-3-2.18L44.71,7.31a7.05,7.05,0,0,0-8.48-2.76l-2.37.93a5.08,5.08,0,0,1-3.72,0l-2.37-.93a7.05,7.05,0,0,0-8.48,2.76L17.91,9.45a5.06,5.06,0,0,1-3,2.18l-2.47.65A7.06,7.06,0,0,0,7.2,19.49L7.35,22A5.11,5.11,0,0,1,6.2,25.56l-1.62,2a7.08,7.08,0,0,0,0,8.92l1.62,2A5.15,5.15,0,0,1,7.35,42L7.2,44.51a7.06,7.06,0,0,0,5.24,7.21l2.47.65a5.06,5.06,0,0,1,3,2.18l1.38,2.14a7,7,0,0,0,8.48,2.76l2.37-.93a5.08,5.08,0,0,1,3.72,0l2.37.93a7.05,7.05,0,0,0,8.48-2.76l1.37-2.14a5.08,5.08,0,0,1,3-2.18l2.47-.65a7.06,7.06,0,0,0,5.24-7.21L56.65,42a5.06,5.06,0,0,1,1.15-3.52l1.62-2a7.08,7.08,0,0,0,0-8.92ZM34.92,38.31a4.92,4.92,0,1,1,4.91,4.91A4.91,4.91,0,0,1,34.92,38.31ZM24.76,44.19a1,1,0,0,1-.84-1.45L36.87,20.31a1,1,0,1,1,1.68,1L25.6,43.71A1,1,0,0,1,24.76,44.19Zm4.32-19.47a4.92,4.92,0,1,1-4.91-4.91A4.92,4.92,0,0,1,29.08,24.72Z" style="fill: inherit;"/></g></svg>