<svg xmlns="http://www.w3.org/2000/svg" xmlns:xlink="http://www.w3.org/1999/xlink" preserveAspectRatio="xMidYMid meet" version="1.0" viewBox="-34.4 8.1 539.3 488.7" zoomAndPan="magnify" style="fill: rgb(239, 214, 172);" original_string_length="3475" width="23.52624039084467px" height="21.30194129934663px"><g id="__id1_s1iqvsdoqd"><path d="M466.028,133.855a18.8,18.8,0,0,1-5.9-22.018c18.926-44.861-27.479-91.306-72.361-72.36a17.992,17.992,0,0,1-12.635.514,17.572,17.572,0,0,1-9.381-6.411A55.44,55.44,0,0,0,266.9,60.069a17.62,17.62,0,0,1-4.917,10.252l-.941.941a17.628,17.628,0,0,1-10.254,4.919A55.439,55.439,0,0,0,224.3,175.032a17.593,17.593,0,0,1,6.411,9.382l.352,1.319a17.616,17.616,0,0,1-.868,11.316,55.3,55.3,0,0,0,1.438,45.419L155.925,318.18c-1.516,1.658-3.954,1.738-6.112,1.664C57.944,266.793-34.435,385.36,39.31,461.667c33.715,35.135,94.384,35.14,128.1,0,29.75-28.885,35.087-78.143,12.362-112.713a6.625,6.625,0,0,1,1.66-5.271l75.708-75.709a55.306,55.306,0,0,0,45.42,1.438,17.615,17.615,0,0,1,11.318-.867l1.318.351a17.6,17.6,0,0,1,9.383,6.412,55.288,55.288,0,0,0,43.829,21.6c27.316.276,51.721-20.882,55.02-48.089a17.628,17.628,0,0,1,4.919-10.252,17.972,17.972,0,0,1,11.194-5.86C487.843,226.71,504.886,163.218,466.028,133.855Zm-306.4,320.032c-29.625,30.871-82.923,30.874-112.546,0-61.153-62.545,7.715-163.213,87.785-129.375a29.265,29.265,0,0,0-9.764,10.554C59.184,312.644,7.375,393.906,56.546,444.429a65.771,65.771,0,0,0,46.813,19.39c36.192.755,67.879-31.66,66.183-67.847a5.5,5.5,0,1,0-11,.272,54.972,54.972,0,0,1-21.725,45.271L125.55,430.243c21.826-28.363-4.534-69.692-39.648-61.769a5.5,5.5,0,0,0,2.339,10.748c24.521-5.582,43.536,22.638,29.422,43.135l-58.2-58.2A55.081,55.081,0,0,1,121.8,345.57c-3.148,30.9,37.01,44.87,53.729,18.5A80.08,80.08,0,0,1,159.632,453.887Zm-32.444-6.45c-47.2,22.306-95.745-27.171-73.628-73.628ZM173.652,335.9a16.892,16.892,0,0,0-4.879,12.536c.5,10.107-8.538,19.093-18.642,18.551-15.049-.188-23.019-18.906-13-30.041a18.087,18.087,0,0,1,14.093-6.113,16.974,16.974,0,0,0,12.481-4.877l73.914-73.913a55.324,55.324,0,0,0,9.947,9.947ZM475.1,189.258A44.329,44.329,0,0,1,438.077,221.8a30.06,30.06,0,0,0-25.552,25.552c-4.823,38.717-55.678,52.389-79.238,21.232a29.861,29.861,0,0,0-34.911-9.35c-35.935,15.176-73.2-22.028-58-58a29.832,29.832,0,0,0-9.353-34.911c-31.116-23.533-17.529-74.416,21.235-79.237a29.8,29.8,0,0,0,25.551-25.553c4.821-38.713,55.679-52.392,79.237-21.232a29.829,29.829,0,0,0,34.911,9.351c35.933-15.175,73.2,22.024,58,58a30.1,30.1,0,0,0,9.351,34.911A44.325,44.325,0,0,1,475.1,189.258Z" style="fill: inherit;"/></g><g id="__id2_s1iqvsdoqd"><path d="M345.166,64.827c-79.181-.366-119.527,97.116-63.366,152.984,34.308,34.917,92.689,34.723,126.733,0C464.762,161.779,424.544,64.684,345.166,64.827Zm4.675,168.06a75.807,75.807,0,0,0-5-35.907,5.5,5.5,0,1,0-10.215,4.08,64.823,64.823,0,0,1,4.153,31.7c-36.9-1.987-69.951-35.046-71.936-71.939,11.052-1.621,21.93.841,32.406,4.035a5.5,5.5,0,0,0,1.935-10.651,75.881,75.881,0,0,0-34.464-4.432,78.111,78.111,0,0,1,11.258-36.166c50.548,7.488,102.053,58.55,108.148,107.941A78.1,78.1,0,0,1,349.841,232.887Zm50.914-22.854c-1.5,1.5-3.079,2.929-4.694,4.3-9.113-50.28-59.637-100.521-111.01-110.535a78.763,78.763,0,0,1,20.169-17.1A122.23,122.23,0,0,1,412.906,194.383,79.138,79.138,0,0,1,400.755,210.033Zm19.976-33.849c-11.276-47.577-49.737-86.035-97.312-97.306C382.331,61.638,437.964,117.294,420.731,176.184Z" style="fill: inherit;"/></g><g id="__id3_s1iqvsdoqd"><path d="M319.685,171.606c-5.287,5.469,2.715,13.469,8.183,8.182C333.154,174.319,325.153,166.319,319.685,171.606Z" style="fill: inherit;"/></g></svg>