<svg xmlns="http://www.w3.org/2000/svg" xmlns:xlink="http://www.w3.org/1999/xlink" preserveAspectRatio="xMidYMid meet" version="1.0" viewBox="13.0 18.0 22.0 12.0" zoomAndPan="magnify" style="fill: rgb(196, 73, 0);" original_string_length="648" width="20.11595538869613px" height="10.972339302925162px"><g id="__id33_s1iqvsdoqd"><path d="M34.708 29.708c-0.181 0.181-0.431 0.294-0.708 0.294s-0.527-0.112-0.708-0.294v0l-9.292-9.294-9.292 9.294c-0.181 0.181-0.432 0.293-0.708 0.293-0.553 0-1.001-0.448-1.001-1.001 0-0.276 0.112-0.527 0.293-0.708v0l10-10c0.181-0.181 0.431-0.294 0.708-0.294s0.527 0.112 0.708 0.294v0l10 10c0.181 0.181 0.294 0.431 0.294 0.708s-0.112 0.527-0.294 0.708v0z" style="fill: inherit;"/></g></svg>