<svg xmlns="http://www.w3.org/2000/svg" xmlns:xlink="http://www.w3.org/1999/xlink" preserveAspectRatio="xMidYMid meet" version="1.0" viewBox="0.0 0.0 475.1 509.1" zoomAndPan="magnify" style="fill: rgb(239, 214, 172);" original_string_length="3342" width="20.318792678695406px" height="21.784280649673438px"><g id="__id34_s1iqvsdoqd"><path d="M50.525,253.649C22.193,253.649,0,224.059,0,186.282s22.193-67.367,50.525-67.367 c28.328,0,50.521,29.59,50.521,67.367S78.854,253.649,50.525,253.649z M50.525,144.166c-13.464,0-25.275,19.682-25.275,42.117 s11.811,42.117,25.275,42.117s25.271-19.682,25.271-42.117S63.989,144.166,50.525,144.166z M163.736,160.272 c-28.333,0-50.525-35.2-50.525-80.136S135.404,0,163.736,0c28.328,0,50.521,35.2,50.521,80.136S192.065,160.272,163.736,160.272z M163.736,25.25c-11.931,0-25.275,23.471-25.275,54.886s13.344,54.886,25.275,54.886c11.931,0,25.271-23.471,25.271-54.886 S175.667,25.25,163.736,25.25z M424.631,258.367c-28.333,0-50.525-29.59-50.525-67.367s22.193-67.367,50.525-67.367 c28.324,0,50.517,29.59,50.517,67.367S452.956,258.367,424.631,258.367z M424.631,148.884c-13.464,0-25.275,19.682-25.275,42.117 s11.811,42.117,25.275,42.117s25.267-19.682,25.267-42.117S438.095,148.884,424.631,148.884z M311.416,164.99 c-28.333,0-50.525-35.2-50.525-80.136s22.193-80.136,50.525-80.136c28.333,0,50.525,35.2,50.525,80.136 S339.749,164.99,311.416,164.99z M311.416,29.968c-11.935,0-25.275,23.471-25.275,54.886s13.34,54.886,25.275,54.886 c11.935,0,25.275-23.471,25.275-54.886S323.351,29.968,311.416,29.968z" style="fill: rgb(239, 214, 172);"/></g><g id="__id35_s1iqvsdoqd"><path d="M394.326,297.866L281.933,185.469c-24.461-24.461-64.26-24.461-88.713,0L80.88,297.809 c-23.968,23.68-37.136,56.649-36.125,90.447c0.974,32.672,15.042,63.249,38.599,83.896c36.647,32.13,92.893,36.98,136.752,11.811 c10.776-6.181,24.174-6.181,34.941,0C273.804,494.731,294.813,500,315.6,500c27.815,0,55.219-9.452,76.195-27.848 c23.557-20.639,37.629-51.224,38.607-83.896C431.412,354.457,418.245,321.489,394.326,297.866z M180.032,387.459 c-0.201-0.206-0.415-0.403-0.633-0.592c-7.492-6.526-11.774-15.666-12.066-25.743c-0.275-9.699,3.378-18.987,10.032-25.497 c6.23-6.091,14.877-9.518,23.915-9.518c0.477,0,0.953,0.008,1.434,0.025c9.909,0.403,18.909,4.685,25.341,12.074 c4.8,5.507,14.244,5.507,19.045,0c6.428-7.389,15.436-11.672,25.349-12.074c9.477-0.337,18.782,3.082,25.341,9.494 c6.65,6.51,10.307,15.798,10.028,25.497c-0.288,10.077-4.57,19.217-12.066,25.743c-0.222,0.189-0.427,0.386-0.633,0.592 l-57.541,57.545L180.032,387.459z M375.15,453.165c-28.661,25.111-72.874,28.776-107.536,8.902c-2.494-1.432-5.079-2.634-7.714-3.68 l52.781-52.788c12.477-11.039,19.891-26.952,20.376-43.744c0.477-16.727-5.943-32.862-17.614-44.278 c-11.499-11.253-27.576-17.261-44.007-16.669c-12.305,0.493-24.132,4.726-33.86,11.926c-9.728-7.2-21.552-11.433-33.856-11.926 c-16.439-0.6-32.504,5.417-44.011,16.669c-11.672,11.417-18.095,27.552-17.614,44.27c0.481,16.801,7.899,32.714,20.372,43.752 l52.787,52.787c-2.635,1.046-5.221,2.249-7.716,3.681c-34.653,19.875-78.878,16.225-107.54-8.902 c-18.301-16.044-29.237-39.971-30.005-65.666c-0.801-26.812,9.637-52.958,28.686-71.781l112.393-112.397 c14.606-14.614,38.385-14.614,53.008,0l112.443,112.455c19.003,18.765,29.442,44.911,28.637,71.732 C404.395,413.194,393.455,437.129,375.15,453.165z" style="fill: inherit;"/></g></svg>