<svg xmlns="http://www.w3.org/2000/svg" xmlns:xlink="http://www.w3.org/1999/xlink" preserveAspectRatio="xMidYMid meet" version="1.0" viewBox="-2.7 22.9 516.8 467.9" zoomAndPan="magnify" style="fill: rgb(0, 0, 0);" original_string_length="1547" width="24.058944492611143px" height="21.784280649673363px"><g><g><g><g id="__id26_s1iqvsdoqd" style="fill: rgb(239, 214, 172);"><path d="M501.567,181.721l-25.468-25.468l-3.796,3.796 c-10.482,10.482-27.475,10.482-37.957,0c-10.481-10.481-10.481-27.475,0-37.957l3.796-3.796L369.82,49.974 c-19.344-10.178-51.11-21.931-98.052-24.669c-42.048-2.453-75.7,6.301-95.651,13.158c5.029,0.085,62.586,2.001,91.602,48.585 c14.414,23.14,11.448,42.931,11.005,54.023l68.322,68.322l3.796-3.796c10.481-10.481,27.475-10.481,37.957,0 c10.481,10.482,10.481,27.475,0,37.957l-3.796,3.796l25.468,25.468c12.578,12.578,32.97,12.578,45.548,0l45.548-45.548 C514.144,214.691,514.144,194.299,501.567,181.721z" style="fill: inherit;"/><path d="M220.683 218.387H243.626V293.538H220.683z" transform="rotate(-45.001 232.154 255.967)" style="fill: inherit;"/><path d="M245.226 173.966H307.924V249.11700000000002H245.226z" transform="rotate(-45.001 276.574 211.545)" style="fill: inherit;"/><path d="M153.664 263.935H219.54999999999998V339.086H153.664z" transform="rotate(-45.001 186.603 301.513)" style="fill: inherit;"/><path d="M12.005,422.972c-14.674,14.674-14.674,38.465,0,53.139l0,0 c14.674,14.674,38.465,14.674,53.139,0l110.594-110.594l-53.139-53.14L12.005,422.972z" style="fill: inherit;"/></g></g></g></g></svg>