<svg xmlns="http://www.w3.org/2000/svg" xmlns:xlink="http://www.w3.org/1999/xlink" preserveAspectRatio="xMidYMid meet" version="1.0" viewBox="0.0 0.0 116.5 126.0" zoomAndPan="magnify" style="fill: rgb(239, 214, 172);" original_string_length="4715" width="18.895165796240466px" height="20.33726259869326px"><g id="__id32_s1iqvsdoqd"><path d="M114.68,97.169c-2.951-7.969-10.532-15.352-20.279-19.751c-1.877-0.846-3.779-1.548-5.681-2.122 c12.416-6.186,20.58-20.28,20.58-36.016C109.3,17.621,93.931,0,75.04,0C56.144,0,40.77,17.621,40.77,39.28 c0,12.37,4.971,23.749,13.432,31.17C50.53,70.052,46.74,69.85,42.89,69.85C18.839,69.85,0,77.436,0,87.12v8.61 C0,105.414,18.839,113,42.89,113c5.021,0,9.927-0.346,14.604-1.014c3.74,4.059,8.598,7.516,14.105,10.006 c6.021,2.713,12.2,4.024,17.867,4.024c8.624,0,16.053-3.045,19.922-8.817c2.262-1.702,3.985-3.788,5.118-6.206 C116.439,106.86,116.499,102.08,114.68,97.169z M42.77,39.28C42.77,18.724,57.246,2,75.04,2c17.788,0,32.26,16.724,32.26,37.28 c0,15.892-8.697,29.994-21.663,35.201c-5.146-1.188-10.285-1.383-14.909-0.565c-3.82-1.292-8.096-2.292-12.723-2.974 C48.463,64.06,42.77,52.245,42.77,39.28z M56.614,82.214c-2.254,1.688-3.981,3.769-5.121,6.203 c-1.383,2.963-1.797,6.332-1.233,9.801c-2.355,0.222-4.824,0.342-7.37,0.342c-16.82,0-31.03-5.238-31.03-11.439 s14.21-11.44,31.03-11.44c6.426,0,12.713,0.77,17.971,2.181C59.144,79.093,57.726,80.554,56.614,82.214z M2,95.73v-3.296 c5.446,7.005,21.465,11.955,40.89,11.955c3.066,0,6.152-0.137,9.187-0.397c0.974,2.12,2.267,4.188,3.864,6.177 C51.739,110.71,47.365,111,42.89,111C20.726,111,2,104.008,2,95.73z M112.694,110.146c-1.012,2.162-2.569,4.028-4.628,5.549 c-7.384,5.448-20.134,5.599-31.725,0.373c-9.265-4.176-16.451-11.134-19.223-18.612c-1.632-4.402-1.595-8.652,0.107-12.291 c0.278-0.594,0.599-1.168,0.952-1.708c1.331-2.038,3.206-3.742,5.569-5.064c2.052-1.144,4.436-1.975,7.086-2.469 c1.834-0.342,3.76-0.512,5.742-0.512c2.903,0,5.926,0.365,8.952,1.091c0.002,0,0.005,0.001,0.008,0.002 c2.679,0.618,5.385,1.539,8.044,2.736c9.269,4.184,16.456,11.145,19.225,18.622C114.434,102.262,114.396,106.509,112.694,110.146z" style="fill: inherit;"/><path d="M100.903,100.581c-1.79,0.869-3.667,1.482-5.579,1.824c-2.479,0.44-4.984,0.44-7.448,0c-0.547-0.1-1.063,0.265-1.161,0.809 c-0.097,0.543,0.265,1.063,0.808,1.16c1.349,0.241,2.708,0.362,4.071,0.362c1.361,0,2.725-0.121,4.081-0.362 c2.093-0.374,4.146-1.045,6.101-1.994c0.497-0.241,0.704-0.84,0.463-1.336C101.998,100.546,101.398,100.341,100.903,100.581z" style="fill: inherit;"/><path d="M98.816,105.363c-1.196,0.593-2.471,1.011-3.793,1.242c-1.665,0.301-3.37,0.3-5.068,0c-0.545-0.099-1.063,0.267-1.159,0.81 c-0.096,0.544,0.267,1.063,0.811,1.159c0.966,0.172,1.935,0.257,2.899,0.257s1.922-0.085,2.869-0.256 c1.506-0.265,2.963-0.742,4.331-1.419c0.495-0.246,0.697-0.846,0.452-1.341C99.911,105.321,99.311,105.119,98.816,105.363z" style="fill: inherit;"/><path d="M74.373,100.5c-1.869-0.614-3.638-1.484-5.26-2.587c-2.034-1.384-3.803-3.121-5.258-5.163 c-0.32-0.451-0.945-0.554-1.395-0.234c-0.45,0.32-0.555,0.945-0.234,1.395c1.593,2.236,3.531,4.14,5.762,5.657 c1.776,1.207,3.714,2.16,5.76,2.833c0.104,0.034,0.209,0.05,0.313,0.05c0.42,0,0.812-0.267,0.95-0.688 C75.183,101.238,74.897,100.673,74.373,100.5z" style="fill: inherit;"/><path d="M69.463,102.44c-1.282-0.423-2.487-1.015-3.582-1.758c-1.762-1.196-2.914-2.571-3.57-3.514 c-0.316-0.453-0.939-0.564-1.392-0.249c-0.454,0.315-0.565,0.938-0.25,1.392c1.08,1.551,2.494,2.942,4.089,4.025 c1.249,0.848,2.621,1.521,4.078,2.002c0.104,0.035,0.21,0.051,0.313,0.051c0.42,0,0.811-0.267,0.95-0.687 C70.272,103.179,69.988,102.613,69.463,102.44z" style="fill: inherit;"/><path d="M55.003,62.405c2.675,3.03,5.777,5.385,9.218,6.998c0.003,0.002,0.007,0.003,0.01,0.005 c0.017,0.008,0.033,0.016,0.051,0.022c3.401,1.604,7.02,2.419,10.758,2.419c15.682,0,28.44-14.61,28.44-32.569 c0-1.681-0.117-3.398-0.349-5.105c0,0,0,0,0-0.001c-0.578-4.228-1.86-8.22-3.809-11.864c-1.726-3.234-3.914-6.082-6.505-8.466 c-2.348-2.16-4.976-3.87-7.81-5.086c-0.006-0.003-0.011-0.005-0.017-0.008c-0.006-0.003-0.011-0.006-0.017-0.008 C81.808,7.387,78.466,6.7,75.04,6.7c-15.688,0-28.45,14.615-28.45,32.58c0,1.34,0.075,2.647,0.214,3.882 c0,0.01,0.002,0.019,0.002,0.029c0.004,0.033,0.005,0.069,0.009,0.102c0.352,3.422,1.191,6.749,2.494,9.881 c0.006,0.016,0.013,0.031,0.02,0.047c1.407,3.424,3.311,6.509,5.66,9.17c0.003,0.004,0.007,0.007,0.01,0.011 c0,0,0.001,0.001,0.001,0.002S55.003,62.405,55.003,62.405z M92.108,15.963c1.961,1.923,3.658,4.143,5.06,6.624L55.85,60.277 c-1.766-2.149-3.243-4.566-4.397-7.22L92.108,15.963z M75.04,69.85c-2.957,0-5.833-0.558-8.574-1.652l34.881-31.811 c0.079,0.971,0.133,1.939,0.133,2.894C101.48,56.137,89.619,69.85,75.04,69.85z M75.04,8.7c2.626,0,5.198,0.445,7.669,1.312 L48.64,41.081c-0.031-0.592-0.05-1.192-0.05-1.801C48.59,22.418,60.456,8.7,75.04,8.7z" style="fill: inherit;"/></g></svg>