<svg xmlns="http://www.w3.org/2000/svg" xmlns:xlink="http://www.w3.org/1999/xlink" data-name="Layer 2" preserveAspectRatio="xMidYMid meet" version="1.0" viewBox="3.0 2.5 57.5 58.5" zoomAndPan="magnify" style="fill: rgb(239, 214, 172);" original_string_length="2185" width="21.427810602678672px" height="21.78428064967332px"><g id="__id31_s1iqvsdoqd"><path d="M50.81,13.46c-.89-2.78-4.27-4.35-6-5a1.78,1.78,0,0,0,0-.35c-.35-1.57-2.93-2.42-3.44-2.57-.32-.1-.49-.32-.81-.76a4.48,4.48,0,0,0-2-1.68C37.16,2.52,35,4.44,32,8.81c-3-4.36-5.2-6.29-6.6-5.7a4.48,4.48,0,0,0-2,1.68c-.32.44-.49.66-.81.76-.51.15-3.09,1-3.44,2.57a1.78,1.78,0,0,0,0,.35c-1.73.64-5.11,2.21-6,5l-.4,1.22C3,44.47,3.54,49.36,4.56,50.6v2.68a1,1,0,0,0,.53.87c.2.1,1.76.82,5.39.82a32.49,32.49,0,0,0,3.33-.18,1,1,0,0,0,.85-.76l.77-3.61c.3-.87,1.1-4.36,2-8.56-.67,8.21-1,15.43,0,16.45C19,60,27.61,60.72,31.37,61a.87.87,0,0,0,.32.06h.62a.87.87,0,0,0,.32-.06c3.76-.23,12.39-1,13.94-2.64.94-1,.65-8.24,0-16.45,1,4.56,1.86,8.27,2.09,8.73a1.32,1.32,0,0,0,.19.29l.72,3.17a1,1,0,0,0,.85.74,32.49,32.49,0,0,0,3.33.18c3.63,0,5.19-.72,5.39-.82a1,1,0,0,0,.53-.87v-3c.83-1.74.62-7.95-8.44-35.58Zm-20.43-.39L29.21,25.84a1,1,0,0,1-1,.87h-.09a1,1,0,0,1-.88-1.05l1.16-12.6a7.61,7.61,0,0,0,1,.07A6.33,6.33,0,0,0,30.38,13.07Zm4.19.06a8.47,8.47,0,0,0,1-.06l1.16,12.59a1,1,0,0,1-.88,1.05h-.09a1,1,0,0,1-1-.87L33.62,13.05A4.87,4.87,0,0,0,34.57,13.13Zm-11.73,40a1,1,0,0,1-.8-1V47.82a1,1,0,0,1,.55-.87,11,11,0,0,0,4.54-4.73,1,1,0,0,1,.88-.56h8.6a1,1,0,0,1,.88.55A10.93,10.93,0,0,0,42,47a1,1,0,0,1,.55.87v4.36a1,1,0,0,1-.8,1c-.22,0-5.43.92-9,1.12h-.85C28.27,54.05,23.06,53.17,22.84,53.13ZM37.93,5a2.69,2.69,0,0,1,1,1A3.4,3.4,0,0,0,40.77,7.4a5.51,5.51,0,0,1,2,1,21.5,21.5,0,0,1-7.4,2.73l0-.32a1,1,0,1,0-1.92.16.73.73,0,0,1-.33-.29C35,7.83,37.15,5.24,37.93,5ZM23.23,7.4A3.4,3.4,0,0,0,25,5.93a2.69,2.69,0,0,1,1-1c.79.28,3,2.87,4.92,5.77a.77.77,0,0,1-.42.32v0a1,1,0,1,0-1.92-.17l0,.29a22.53,22.53,0,0,1-7.4-2.71A5.79,5.79,0,0,1,23.23,7.4ZM12.92,52.93a19.28,19.28,0,0,1-6.43-.33v-.91a12.46,12.46,0,0,0,6.64.24Zm44.8-.33a19.38,19.38,0,0,1-6.44.33l-.22-1a12.44,12.44,0,0,0,6.66-.36Z" style="fill: inherit;"/></g></svg>